<svg id="visual" viewBox="0 0 900 100" width="900" height="100" xmlns="http://www.w3.org/2000/svg" xmlns:xlink="http://www.w3.org/1999/xlink" version="1.1"><path d="M0 49L16.7 46.3C33.3 43.7 66.7 38.3 100 40.5C133.3 42.7 166.7 52.3 200 56.8C233.3 61.3 266.7 60.7 300 59.7C333.3 58.7 366.7 57.3 400 52.7C433.3 48 466.7 40 500 40.3C533.3 40.7 566.7 49.3 600 50.5C633.3 51.7 666.7 45.3 700 42C733.3 38.7 766.7 38.3 800 37.5C833.3 36.7 866.7 35.3 883.3 34.7L900 34L900 101L883.3 101C866.7 101 833.3 101 800 101C766.7 101 733.3 101 700 101C666.7 101 633.3 101 600 101C566.7 101 533.3 101 500 101C466.7 101 433.3 101 400 101C366.7 101 333.3 101 300 101C266.7 101 233.3 101 200 101C166.7 101 133.3 101 100 101C66.7 101 33.3 101 16.7 101L0 101Z" fill="#fdce76"></path><path d="M0 77L16.7 72.5C33.3 68 66.7 59 100 56C133.3 53 166.7 56 200 58.8C233.3 61.7 266.7 64.3 300 63.2C333.3 62 366.7 57 400 55.5C433.3 54 466.7 56 500 56.5C533.3 57 566.7 56 600 58.3C633.3 60.7 666.7 66.3 700 65.7C733.3 65 766.7 58 800 54C833.3 50 866.7 49 883.3 48.5L900 48L900 101L883.3 101C866.7 101 833.3 101 800 101C766.7 101 733.3 101 700 101C666.7 101 633.3 101 600 101C566.7 101 533.3 101 500 101C466.7 101 433.3 101 400 101C366.7 101 333.3 101 300 101C266.7 101 233.3 101 200 101C166.7 101 133.3 101 100 101C66.7 101 33.3 101 16.7 101L0 101Z" fill="#7d8a3e"></path><path d="M0 67L16.7 70.2C33.3 73.3 66.7 79.7 100 80.8C133.3 82 166.7 78 200 75.8C233.3 73.7 266.7 73.3 300 73.2C333.3 73 366.7 73 400 73.8C433.3 74.7 466.7 76.3 500 76.3C533.3 76.3 566.7 74.7 600 73.8C633.3 73 666.7 73 700 74C733.3 75 766.7 77 800 76.2C833.3 75.3 866.7 71.7 883.3 69.8L900 68L900 101L883.3 101C866.7 101 833.3 101 800 101C766.7 101 733.3 101 700 101C666.7 101 633.3 101 600 101C566.7 101 533.3 101 500 101C466.7 101 433.3 101 400 101C366.7 101 333.3 101 300 101C266.7 101 233.3 101 200 101C166.7 101 133.3 101 100 101C66.7 101 33.3 101 16.7 101L0 101Z" fill="#0f441a"></path></svg>